<svg id="svg" xmlns="http://www.w3.org/2000/svg" xmlns:xlink="http://www.w3.org/1999/xlink" width="400" height="400" viewBox="0, 0, 400,400"><g id="svgg"><path id="path0" d="M0.000 200.000 L 0.000 400.000 200.000 400.000 L 400.000 400.000 400.000 200.000 L 400.000 0.000 200.000 0.000 L 0.000 0.000 0.000 200.000 M126.600 138.000 L 126.600 139.000 94.800 139.200 L 63.000 139.400 62.800 171.200 L 62.600 203.000 61.300 203.125 L 60.000 203.251 60.000 170.023 L 60.000 136.795 93.300 136.898 L 126.600 137.000 126.600 138.000 M162.680 192.900 C 163.598 194.115,169.654 208.883,169.451 209.412 C 168.803 211.099,166.205 209.796,165.212 207.286 L 164.691 205.972 160.851 206.086 L 157.010 206.200 156.109 208.100 C 155.184 210.050,153.933 210.579,152.457 209.643 C 151.944 209.318,157.277 196.095,159.048 193.300 C 159.689 192.289,162.024 192.031,162.680 192.900 M178.251 192.706 C 178.499 192.868,179.824 195.243,181.196 197.985 L 183.691 202.969 186.346 197.785 C 189.140 192.326,189.498 191.987,191.841 192.574 L 192.800 192.815 192.800 201.181 C 192.800 209.195,192.766 209.557,192.000 209.800 C 189.847 210.483,189.600 209.944,189.600 204.573 C 189.600 198.579,189.423 198.505,187.096 203.519 C 184.126 209.918,183.353 209.902,180.190 203.374 L 178.070 199.000 178.035 204.020 C 177.998 209.280,177.777 210.000,176.200 210.000 C 174.517 210.000,174.400 209.428,174.400 201.200 C 174.400 195.636,174.539 193.221,174.880 192.880 C 175.408 192.352,177.539 192.242,178.251 192.706 M202.600 201.200 L 202.600 209.800 201.476 209.929 C 199.292 210.179,199.200 209.829,199.200 201.231 C 199.200 192.648,199.294 192.275,201.398 192.482 L 202.600 192.600 202.600 201.200 M221.132 192.750 C 222.767 193.786,221.475 195.396,218.909 195.519 L 216.419 195.638 216.309 202.476 C 216.190 209.944,216.040 210.398,213.871 209.854 L 212.819 209.589 212.709 202.695 L 212.600 195.800 210.200 195.600 C 207.652 195.388,206.834 194.405,208.018 192.978 C 208.560 192.325,220.144 192.123,221.132 192.750 M228.316 195.438 C 228.448 198.662,227.917 199.612,226.426 198.814 C 225.442 198.287,225.165 193.049,226.100 192.658 C 227.756 191.965,228.197 192.517,228.316 195.438 M243.510 193.010 C 245.893 193.718,246.150 194.006,245.805 195.576 C 245.480 197.055,244.768 197.313,243.023 196.584 C 240.967 195.725,238.526 195.817,238.015 196.772 C 237.435 197.856,238.241 198.545,241.294 199.579 C 245.957 201.158,247.538 203.840,245.793 207.213 C 243.622 211.411,232.270 210.161,233.353 205.843 C 233.698 204.469,234.684 204.263,236.100 205.271 C 237.793 206.477,241.520 206.797,242.250 205.800 C 243.102 204.634,242.244 203.761,239.106 202.597 C 229.853 199.167,233.981 190.181,243.510 193.010 M339.800 230.000 L 339.800 263.000 306.405 263.000 C 274.579 263.000,273.004 262.966,272.872 262.281 C 272.499 260.343,271.522 260.400,305.249 260.400 L 336.800 260.400 336.800 228.867 C 336.800 211.523,336.929 197.205,337.086 197.048 C 337.243 196.891,337.918 196.816,338.586 196.881 L 339.800 197.000 339.800 230.000 M159.639 199.737 C 158.958 201.243,158.400 202.548,158.400 202.637 C 158.400 202.727,159.492 202.800,160.827 202.800 C 163.585 202.800,163.542 202.962,161.801 199.065 L 160.879 197.000 159.639 199.737 " stroke="none" fill="#f3ebe3" fill-rule="evenodd"></path><path id="path1" d="M159.191 193.824 C 158.977 194.387,158.351 195.832,157.801 197.035 C 157.250 198.239,156.800 199.303,156.800 199.400 C 156.800 199.497,156.329 200.617,155.754 201.888 C 155.179 203.160,154.279 205.150,153.754 206.312 C 152.021 210.147,153.911 211.489,155.710 207.700 L 156.612 205.800 160.954 205.800 L 165.296 205.800 165.998 207.600 C 166.690 209.378,167.989 210.171,168.830 209.330 C 169.112 209.048,167.331 204.406,165.020 199.400 C 164.715 198.740,164.149 197.390,163.762 196.400 C 162.285 192.625,160.112 191.400,159.191 193.824 M175.388 193.286 C 175.275 193.582,175.231 197.328,175.291 201.612 L 175.400 209.400 176.400 209.400 L 177.400 209.400 177.511 203.700 C 177.572 200.565,177.759 198.000,177.928 198.000 C 178.096 198.000,179.269 200.160,180.534 202.800 C 183.629 209.256,183.829 209.254,186.918 202.732 C 189.707 196.842,189.941 196.935,190.088 204.008 L 190.200 209.400 191.200 209.400 L 192.200 209.400 192.200 201.200 L 192.200 193.000 190.757 192.879 L 189.313 192.758 186.675 198.179 C 185.225 201.161,183.894 203.600,183.719 203.599 C 183.543 203.599,182.230 201.214,180.800 198.299 C 178.317 193.238,178.142 192.994,176.897 192.874 C 176.079 192.796,175.518 192.949,175.388 193.286 M200.189 193.284 C 200.075 193.581,200.031 197.328,200.091 201.612 L 200.200 209.400 201.200 209.400 L 202.200 209.400 202.200 201.200 L 202.200 193.000 201.298 192.872 C 200.802 192.802,200.303 192.987,200.189 193.284 M208.149 193.390 C 207.632 194.737,208.295 195.200,210.745 195.200 C 213.718 195.200,213.600 194.876,213.600 203.059 L 213.600 209.653 214.700 209.527 L 215.800 209.400 215.909 202.319 L 216.018 195.238 218.509 195.119 C 220.868 195.006,221.000 194.947,221.000 194.000 L 221.000 193.000 214.691 192.890 C 209.337 192.796,208.347 192.872,208.149 193.390 M226.400 195.571 C 226.400 198.154,226.471 198.400,227.218 198.400 C 228.364 198.400,228.250 193.094,227.100 192.875 C 226.487 192.758,226.400 193.092,226.400 195.571 M237.903 193.280 C 232.508 194.713,233.477 200.319,239.443 202.196 C 242.382 203.120,243.392 203.981,243.065 205.282 C 242.544 207.359,239.428 207.679,236.257 205.980 C 233.978 204.758,232.445 206.338,234.500 207.791 C 239.075 211.025,245.800 209.245,245.800 204.800 C 245.800 202.290,245.006 201.498,240.979 199.992 C 237.701 198.766,236.898 197.980,237.523 196.609 C 238.253 195.007,241.956 194.908,243.839 196.440 C 244.417 196.910,245.773 195.427,245.475 194.651 C 244.989 193.385,240.541 192.580,237.903 193.280 M161.949 198.100 C 162.927 200.264,164.000 202.853,164.000 203.049 C 164.000 203.317,158.143 203.209,157.870 202.937 C 157.725 202.792,157.757 202.477,157.940 202.237 C 158.233 201.853,158.692 200.770,160.032 197.300 C 160.546 195.970,161.088 196.196,161.949 198.100 " stroke="none" fill="#3c3c39" fill-rule="evenodd"></path><path id="path2" d="M60.400 169.800 C 60.400 202.133,60.407 202.400,61.200 202.400 C 61.993 202.400,62.000 202.133,62.000 170.880 C 62.000 146.898,62.115 139.245,62.480 138.880 C 62.845 138.515,70.498 138.400,94.480 138.400 C 122.231 138.400,126.000 138.328,126.000 137.800 C 126.000 137.272,122.089 137.200,93.200 137.200 L 60.400 137.200 60.400 169.800 M337.600 228.957 C 337.600 257.547,337.537 260.739,336.967 260.957 C 336.619 261.091,322.219 261.200,304.967 261.200 C 273.867 261.200,273.600 261.207,273.600 262.000 C 273.600 262.793,273.867 262.800,306.400 262.800 L 339.200 262.800 339.200 230.000 C 339.200 197.467,339.193 197.200,338.400 197.200 C 337.607 197.200,337.600 197.467,337.600 228.957 " stroke="none" fill="#dc6454" fill-rule="evenodd"></path><path id="path3" d="M60.000 170.023 L 60.000 203.251 61.300 203.125 L 62.600 203.000 62.800 171.200 L 63.000 139.400 94.800 139.200 L 126.600 139.000 126.600 138.000 L 126.600 137.000 93.300 136.898 L 60.000 136.795 60.000 170.023 M126.000 137.800 C 126.000 138.328,122.231 138.400,94.480 138.400 C 70.498 138.400,62.845 138.515,62.480 138.880 C 62.115 139.245,62.000 146.898,62.000 170.880 C 62.000 202.133,61.993 202.400,61.200 202.400 C 60.407 202.400,60.400 202.133,60.400 169.800 L 60.400 137.200 93.200 137.200 C 122.089 137.200,126.000 137.272,126.000 137.800 M337.086 197.048 C 336.929 197.205,336.800 211.523,336.800 228.867 L 336.800 260.400 305.249 260.400 C 271.522 260.400,272.499 260.343,272.872 262.281 C 273.004 262.966,274.579 263.000,306.405 263.000 L 339.800 263.000 339.800 230.000 L 339.800 197.000 338.586 196.881 C 337.918 196.816,337.243 196.891,337.086 197.048 M339.200 230.000 L 339.200 262.800 306.400 262.800 C 273.867 262.800,273.600 262.793,273.600 262.000 C 273.600 261.207,273.867 261.200,304.967 261.200 C 322.219 261.200,336.619 261.091,336.967 260.957 C 337.537 260.739,337.600 257.547,337.600 228.957 C 337.600 197.467,337.607 197.200,338.400 197.200 C 339.193 197.200,339.200 197.467,339.200 230.000 " stroke="none" fill="#e48c74" fill-rule="evenodd"></path><path id="path4" d="M159.048 193.300 C 157.277 196.095,151.944 209.318,152.457 209.643 C 153.933 210.579,155.184 210.050,156.109 208.100 L 157.010 206.200 160.851 206.086 L 164.691 205.972 165.212 207.286 C 166.205 209.796,168.803 211.099,169.451 209.412 C 169.654 208.883,163.598 194.115,162.680 192.900 C 162.024 192.031,159.689 192.289,159.048 193.300 M174.880 192.880 C 174.539 193.221,174.400 195.636,174.400 201.200 C 174.400 209.428,174.517 210.000,176.200 210.000 C 177.777 210.000,177.998 209.280,178.035 204.020 L 178.070 199.000 180.190 203.374 C 183.353 209.902,184.126 209.918,187.096 203.519 C 189.423 198.505,189.600 198.579,189.600 204.573 C 189.600 209.944,189.847 210.483,192.000 209.800 C 192.766 209.557,192.800 209.195,192.800 201.181 L 192.800 192.815 191.841 192.574 C 189.498 191.987,189.140 192.326,186.346 197.785 L 183.691 202.969 181.196 197.985 C 179.824 195.243,178.499 192.868,178.251 192.706 C 177.539 192.242,175.408 192.352,174.880 192.880 M199.698 192.862 C 199.334 193.226,199.200 195.484,199.200 201.231 C 199.200 209.829,199.292 210.179,201.476 209.929 L 202.600 209.800 202.600 201.200 L 202.600 192.600 201.398 192.482 C 200.737 192.417,199.972 192.588,199.698 192.862 M208.018 192.978 C 206.834 194.405,207.652 195.388,210.200 195.600 L 212.600 195.800 212.709 202.695 L 212.819 209.589 213.871 209.854 C 216.040 210.398,216.190 209.944,216.309 202.476 L 216.419 195.638 218.909 195.519 C 221.475 195.396,222.767 193.786,221.132 192.750 C 220.144 192.123,208.560 192.325,208.018 192.978 M226.100 192.658 C 225.165 193.049,225.442 198.287,226.426 198.814 C 227.917 199.612,228.448 198.662,228.316 195.438 C 228.197 192.517,227.756 191.965,226.100 192.658 M237.400 193.001 C 231.926 194.938,232.877 200.288,239.106 202.597 C 242.244 203.761,243.102 204.634,242.250 205.800 C 241.520 206.797,237.793 206.477,236.100 205.271 C 234.684 204.263,233.698 204.469,233.353 205.843 C 232.270 210.161,243.622 211.411,245.793 207.213 C 247.538 203.840,245.957 201.158,241.294 199.579 C 238.241 198.545,237.435 197.856,238.015 196.772 C 238.526 195.817,240.967 195.725,243.023 196.584 C 244.768 197.313,245.480 197.055,245.805 195.576 C 246.358 193.059,241.470 191.561,237.400 193.001 M162.483 193.700 C 162.799 194.195,163.374 195.410,163.762 196.400 C 164.149 197.390,164.715 198.740,165.020 199.400 C 167.331 204.406,169.112 209.048,168.830 209.330 C 167.989 210.171,166.690 209.378,165.998 207.600 L 165.296 205.800 160.954 205.800 L 156.612 205.800 155.710 207.700 C 153.911 211.489,152.021 210.147,153.754 206.312 C 154.279 205.150,155.179 203.160,155.754 201.888 C 156.329 200.617,156.800 199.497,156.800 199.400 C 156.800 199.303,157.250 198.239,157.801 197.035 C 158.351 195.832,158.977 194.387,159.191 193.824 C 159.708 192.464,161.647 192.392,162.483 193.700 M180.800 198.299 C 182.230 201.214,183.543 203.599,183.719 203.599 C 183.894 203.600,185.225 201.161,186.675 198.179 L 189.313 192.758 190.757 192.879 L 192.200 193.000 192.200 201.200 L 192.200 209.400 191.200 209.400 L 190.200 209.400 190.088 204.008 C 189.941 196.935,189.707 196.842,186.918 202.732 C 183.829 209.254,183.629 209.256,180.534 202.800 C 179.269 200.160,178.096 198.000,177.928 198.000 C 177.759 198.000,177.572 200.565,177.511 203.700 L 177.400 209.400 176.400 209.400 L 175.400 209.400 175.291 201.612 C 175.165 192.630,175.151 192.706,176.897 192.874 C 178.142 192.994,178.317 193.238,180.800 198.299 M202.200 201.200 L 202.200 209.400 201.200 209.400 L 200.200 209.400 200.091 201.612 C 199.970 192.984,200.011 192.689,201.298 192.872 L 202.200 193.000 202.200 201.200 M221.000 194.000 C 221.000 194.947,220.868 195.006,218.509 195.119 L 216.018 195.238 215.909 202.319 L 215.800 209.400 214.700 209.527 L 213.600 209.653 213.600 203.059 C 213.600 194.876,213.718 195.200,210.745 195.200 C 208.295 195.200,207.632 194.737,208.149 193.390 C 208.347 192.872,209.337 192.796,214.691 192.890 L 221.000 193.000 221.000 194.000 M227.918 195.704 C 228.027 198.192,227.973 198.400,227.218 198.400 C 226.471 198.400,226.400 198.154,226.400 195.571 C 226.400 191.459,227.737 191.576,227.918 195.704 M243.065 193.436 C 244.268 193.786,245.353 194.333,245.475 194.651 C 245.773 195.427,244.417 196.910,243.839 196.440 C 241.956 194.908,238.253 195.007,237.523 196.609 C 236.898 197.980,237.701 198.766,240.979 199.992 C 245.006 201.498,245.800 202.290,245.800 204.800 C 245.800 209.245,239.075 211.025,234.500 207.791 C 232.445 206.338,233.978 204.758,236.257 205.980 C 239.428 207.679,242.544 207.359,243.065 205.282 C 243.392 203.981,242.382 203.120,239.443 202.196 C 230.674 199.438,234.219 190.865,243.065 193.436 M160.032 197.300 C 158.692 200.770,158.233 201.853,157.940 202.237 C 157.757 202.477,157.725 202.792,157.870 202.937 C 158.143 203.209,164.000 203.317,164.000 203.049 C 164.000 202.966,163.711 202.201,163.359 201.349 C 161.217 196.178,160.706 195.556,160.032 197.300 M162.989 201.965 C 163.238 202.749,163.106 202.800,160.827 202.800 C 159.492 202.800,158.400 202.727,158.400 202.637 C 158.400 202.548,158.958 201.243,159.639 199.737 L 160.879 197.000 161.801 199.065 C 162.309 200.201,162.843 201.506,162.989 201.965 " stroke="none" fill="#a29f97" fill-rule="evenodd"></path></g></svg>