<?xml version="1.0" standalone="no"?>
<!DOCTYPE svg PUBLIC "-//W3C//DTD SVG 20010904//EN"
 "http://www.w3.org/TR/2001/REC-SVG-20010904/DTD/svg10.dtd">
<svg version="1.0" xmlns="http://www.w3.org/2000/svg"
 width="500.000000pt" height="500.000000pt" viewBox="0 0 500.000000 500.000000"
 preserveAspectRatio="xMidYMid meet">
<metadata>
Created by potrace 1.15, written by Peter Selinger 2001-2017
</metadata>
<g transform="translate(0.000000,500.000000) scale(0.100000,-0.100000)"
fill="#000000" stroke="none">
<path d="M1694 4097 c29 -45 64 -100 79 -122 15 -23 123 -279 241 -570 l215
-530 175 -3 c97 -1 176 0 176 4 0 3 -33 50 -72 105 -40 54 -73 102 -73 107 0
15 -690 1064 -705 1072 -8 4 -32 10 -52 13 l-37 6 53 -82z"/>
<path d="M4034 2682 c17 -55 36 -139 36 -159 l0 -23 -1830 0 c-1007 0 -1830
-3 -1830 -7 1 -23 28 -39 136 -78 65 -24 118 -47 118 -52 -1 -4 -32 -101 -69
-216 -36 -114 -63 -212 -60 -217 3 -6 27 -10 53 -10 l47 1 160 210 c145 190
162 209 185 205 14 -3 70 -15 125 -26 226 -47 290 -52 687 -59 212 -3 389 -8
391 -11 3 -3 -18 -80 -46 -173 l-52 -167 -131 0 c-165 0 -176 -6 -182 -101 -3
-54 -1 -68 18 -91 21 -27 25 -28 112 -28 82 0 90 -2 83 -17 -3 -10 -82 -199
-176 -419 -93 -221 -169 -406 -169 -412 0 -6 8 -8 18 -6 9 3 89 15 176 28
l160 22 498 684 c274 376 499 684 501 686 1 1 173 -5 382 -13 304 -12 404 -13
500 -3 232 22 331 52 410 121 49 43 95 106 95 131 0 16 -9 18 -69 18 l-69 0
-6 35 c-12 62 -58 102 -169 149 -36 14 -38 14 -33 -2z"/>
</g>
</svg>
